<svg width="56" height="32" viewBox="0 0 56 32" fill="none" xmlns="http://www.w3.org/2000/svg">
<rect width="56" height="32" rx="4" fill="#FF6633"/>
<path d="M9.75325 16.872C9.64658 16.872 9.55592 16.84 9.48125 16.776C9.41725 16.7013 9.38525 16.6107 9.38525 16.504V15.896C9.38525 15.7893 9.41725 15.704 9.48125 15.64C9.55592 15.5653 9.64658 15.528 9.75325 15.528H14.5533C14.6599 15.528 14.7453 15.5653 14.8093 15.64C14.8839 15.704 14.9213 15.7893 14.9213 15.896V16.504C14.9213 16.6107 14.8839 16.7013 14.8093 16.776C14.7453 16.84 14.6599 16.872 14.5533 16.872H9.75325ZM20.5626 21.16C19.752 21.16 19.0533 21.016 18.4666 20.728C17.88 20.44 17.4266 20.0613 17.1066 19.592C16.7973 19.1227 16.632 18.6213 16.6106 18.088V18.056C16.6106 17.9707 16.6426 17.9013 16.7066 17.848C16.7706 17.7947 16.8453 17.768 16.9306 17.768H17.7946C18.0186 17.768 18.1626 17.8853 18.2266 18.12C18.376 18.6853 18.664 19.1067 19.0906 19.384C19.5173 19.6613 20.008 19.8 20.5626 19.8C21.2773 19.8 21.8693 19.5867 22.3386 19.16C22.8186 18.7227 23.0586 18.12 23.0586 17.352C23.0586 16.6587 22.8186 16.0987 22.3386 15.672C21.8693 15.2453 21.2773 15.032 20.5626 15.032C20.1786 15.032 19.8693 15.0853 19.6346 15.192C19.4 15.288 19.1653 15.4267 18.9306 15.608C18.8026 15.704 18.6906 15.7787 18.5946 15.832C18.5093 15.8747 18.4133 15.896 18.3066 15.896H17.4746C17.3786 15.896 17.2933 15.864 17.2186 15.8C17.144 15.7253 17.112 15.64 17.1226 15.544L17.6346 10.2C17.6453 10.072 17.6826 9.976 17.7466 9.912C17.8213 9.83733 17.9173 9.8 18.0346 9.8H23.6186C23.7253 9.8 23.8106 9.83733 23.8746 9.912C23.9493 9.976 23.9866 10.0613 23.9866 10.168V10.792C23.9866 10.8987 23.9493 10.9893 23.8746 11.064C23.8106 11.128 23.7253 11.16 23.6186 11.16H19.0106L18.7066 14.312C19.2826 13.9493 19.976 13.768 20.7866 13.768C21.4906 13.768 22.136 13.912 22.7226 14.2C23.32 14.488 23.7893 14.904 24.1306 15.448C24.4826 15.992 24.6586 16.632 24.6586 17.368C24.6586 18.1573 24.4826 18.84 24.1306 19.416C23.7893 19.9813 23.3093 20.4133 22.6906 20.712C22.072 21.0107 21.3626 21.16 20.5626 21.16ZM30.4626 21.16C29.0866 21.16 28.0786 20.76 27.4386 19.96C26.7986 19.16 26.4573 18.1093 26.4146 16.808C26.404 16.52 26.3986 16.056 26.3986 15.416C26.3986 14.7547 26.404 14.2747 26.4146 13.976C26.4466 12.696 26.788 11.656 27.4386 10.856C28.0893 10.0453 29.0973 9.64 30.4626 9.64C31.8386 9.64 32.852 10.0453 33.5026 10.856C34.1533 11.656 34.4946 12.696 34.5266 13.976C34.548 14.5733 34.5586 15.0533 34.5586 15.416C34.5586 15.768 34.548 16.232 34.5266 16.808C34.484 18.1093 34.1426 19.16 33.5026 19.96C32.8626 20.76 31.8493 21.16 30.4626 21.16ZM30.4626 19.784C31.2626 19.784 31.8653 19.5173 32.2706 18.984C32.6866 18.4507 32.9053 17.6987 32.9266 16.728C32.948 16.1093 32.9586 15.6613 32.9586 15.384C32.9586 15.0853 32.948 14.648 32.9266 14.072C32.9053 13.112 32.692 12.36 32.2866 11.816C31.8813 11.272 31.2733 11 30.4626 11C29.6626 11 29.0546 11.272 28.6386 11.816C28.2333 12.36 28.02 13.112 27.9986 14.072L27.9826 15.384L27.9986 16.728C28.02 17.6987 28.2333 18.4507 28.6386 18.984C29.0546 19.5173 29.6626 19.784 30.4626 19.784ZM38.6349 15.416C37.9415 15.416 37.3922 15.2347 36.9869 14.872C36.5922 14.4987 36.3735 13.9867 36.3309 13.336C36.3202 13.1547 36.3149 12.92 36.3149 12.632C36.3149 12.3227 36.3202 12.072 36.3309 11.88C36.3629 11.2187 36.5709 10.696 36.9549 10.312C37.3495 9.91733 37.9095 9.72 38.6349 9.72C39.3602 9.72 39.9149 9.91733 40.2989 10.312C40.6935 10.696 40.9069 11.2187 40.9389 11.88C40.9602 12.3067 40.9709 12.5787 40.9709 12.696C40.9709 12.8027 40.9602 13.016 40.9389 13.336C40.9069 13.9867 40.6882 14.4987 40.2829 14.872C39.8775 15.2347 39.3282 15.416 38.6349 15.416ZM37.2909 21C37.1949 21 37.1149 20.9733 37.0509 20.92C36.9869 20.856 36.9549 20.776 36.9549 20.68C36.9549 20.616 36.9762 20.5573 37.0189 20.504L44.9229 10.104C45.0082 9.98667 45.0829 9.90667 45.1469 9.864C45.2215 9.82133 45.3229 9.8 45.4509 9.8H45.9789C46.0855 9.8 46.1655 9.832 46.2189 9.896C46.2829 9.94933 46.3149 10.024 46.3149 10.12C46.3149 10.184 46.2935 10.2427 46.2509 10.296L38.3629 20.696C38.2775 20.8133 38.1975 20.8933 38.1229 20.936C38.0589 20.9787 37.9575 21 37.8189 21H37.2909ZM38.6349 14.424C39.0189 14.424 39.2962 14.312 39.4669 14.088C39.6482 13.864 39.7549 13.592 39.7869 13.272C39.8082 12.888 39.8189 12.664 39.8189 12.6C39.8189 12.504 39.8082 12.2853 39.7869 11.944C39.7655 11.6133 39.6589 11.336 39.4669 11.112C39.2855 10.888 39.0082 10.776 38.6349 10.776C38.2615 10.776 37.9842 10.888 37.8029 11.112C37.6215 11.336 37.5202 11.6133 37.4989 11.944C37.4882 12.1147 37.4829 12.3333 37.4829 12.6C37.4829 12.856 37.4882 13.08 37.4989 13.272C37.5309 13.6027 37.6322 13.88 37.8029 14.104C37.9842 14.3173 38.2615 14.424 38.6349 14.424ZM44.6189 21.096C43.9255 21.096 43.3762 20.904 42.9709 20.52C42.5762 20.1253 42.3575 19.6027 42.3149 18.952C42.3042 18.7707 42.2989 18.536 42.2989 18.248C42.2989 17.9387 42.3042 17.688 42.3149 17.496C42.3575 16.8347 42.5709 16.312 42.9549 15.928C43.3495 15.5333 43.9042 15.336 44.6189 15.336C45.3442 15.336 45.8989 15.5333 46.2829 15.928C46.6775 16.312 46.8962 16.8347 46.9389 17.496C46.9602 17.88 46.9709 18.1307 46.9709 18.248C46.9709 18.3547 46.9602 18.5893 46.9389 18.952C46.8962 19.6027 46.6722 20.1253 46.2669 20.52C45.8615 20.904 45.3122 21.096 44.6189 21.096ZM44.6189 20.04C45.0029 20.04 45.2802 19.928 45.4509 19.704C45.6322 19.48 45.7389 19.208 45.7709 18.888C45.7922 18.504 45.8029 18.28 45.8029 18.216C45.8029 18.12 45.7922 17.9013 45.7709 17.56C45.7495 17.2293 45.6482 16.952 45.4669 16.728C45.2855 16.504 45.0029 16.392 44.6189 16.392C44.2455 16.392 43.9682 16.504 43.7869 16.728C43.6055 16.952 43.5042 17.2293 43.4829 17.56C43.4722 17.7307 43.4669 17.9493 43.4669 18.216C43.4669 18.472 43.4722 18.696 43.4829 18.888C43.5149 19.208 43.6162 19.48 43.7869 19.704C43.9682 19.928 44.2455 20.04 44.6189 20.04Z" fill="white"/>
</svg>
