<svg width="24" height="28" viewBox="0 0 24 28" fill="none" xmlns="http://www.w3.org/2000/svg">
<path fill-rule="evenodd" clip-rule="evenodd" d="M5.5 25C5.5 23.6193 6.61929 22.5 8 22.5C9.38071 22.5 10.5 23.6193 10.5 25C10.5 26.3807 9.38071 27.5 8 27.5C6.61929 27.5 5.5 26.3807 5.5 25ZM8 23.5C7.17157 23.5 6.5 24.1716 6.5 25C6.5 25.8284 7.17157 26.5 8 26.5C8.82843 26.5 9.5 25.8284 9.5 25C9.5 24.1716 8.82843 23.5 8 23.5Z" fill="#414141"/>
<path fill-rule="evenodd" clip-rule="evenodd" d="M17.5 25C17.5 23.6193 18.6193 22.5 20 22.5C21.3807 22.5 22.5 23.6193 22.5 25C22.5 26.3807 21.3807 27.5 20 27.5C18.6193 27.5 17.5 26.3807 17.5 25ZM20 23.5C19.1716 23.5 18.5 24.1716 18.5 25C18.5 25.8284 19.1716 26.5 20 26.5C20.8284 26.5 21.5 25.8284 21.5 25C21.5 24.1716 20.8284 23.5 20 23.5Z" fill="#414141"/>
<path fill-rule="evenodd" clip-rule="evenodd" d="M1 4.5C0.723858 4.5 0.5 4.72386 0.5 5C0.5 5.27614 0.723858 5.5 1 5.5H4.58051C5.33783 9.79147 6.10333 14.0643 6.74931 18.3709C6.93288 19.5947 7.98416 20.5 9.22165 20.5H19.3597C20.5514 20.5 21.5774 19.6588 21.8111 18.4903L23.2503 11.2942C23.436 10.366 22.726 9.5 21.7795 9.5H7.16046C6.8575 9.5 6.57797 9.58901 6.34436 9.74093L5.49239 4.91311C5.45023 4.67418 5.24262 4.5 5 4.5H1ZM6.666 11.0742C6.62065 10.7719 6.85478 10.5 7.16046 10.5H21.7795C22.095 10.5 22.3316 10.7887 22.2698 11.0981L20.8305 18.2942C20.6903 18.9953 20.0747 19.5 19.3597 19.5H9.22165C8.47916 19.5 7.84839 18.9568 7.73825 18.2225L6.666 11.0742Z" fill="#414141"/>
<rect x="11.8594" width="11.28" height="11" rx="4" fill="#FF6633"/>
<path d="M18.3794 9C18.3127 9 18.256 8.98 18.2094 8.94C18.1694 8.89333 18.1494 8.83667 18.1494 8.77V3.17L16.4894 4.45C16.4427 4.49 16.3927 4.51 16.3394 4.51C16.2794 4.51 16.2227 4.47667 16.1694 4.41L15.9094 4.08C15.876 4.03333 15.8594 3.98667 15.8594 3.94C15.8594 3.86 15.8927 3.79667 15.9594 3.75L18.1394 2.07C18.2127 2.02333 18.2994 2 18.3994 2H18.9094C18.976 2 19.0294 2.02333 19.0694 2.07C19.116 2.11 19.1394 2.16333 19.1394 2.23V8.77C19.1394 8.83667 19.116 8.89333 19.0694 8.94C19.0294 8.98 18.976 9 18.9094 9H18.3794Z" fill="white"/>
</svg>
